{"title":"iMPACT!.Bound.for.Glory.2017.11.05.HDTV.XviD-FICEK9","magnet":"magnet:?xt=urn:btih:2ac5bca7422999c6dc90e7b45b942e4ca0206b54&dn=iMPACT%21.Bound.for.Glory.2017.11.05.HDTV.XviD-FICEK9&tr=udp%3A%2F%2Ftracker.leechers-paradise.org%3A6969&tr=udp%3A%2F%2Fzer0day.ch%3A1337&tr=udp%3A%2F%2Fopen.demonii.com%3A1337&tr=udp%3A%2F%2Ftracker.coppersurfer.tk%3A6969&tr=udp%3A%2F%2Fexodus.desync.com%3A6969","uploader":"FICEK9","categoryP":"video","categoryS":"tv_shows","size":"1878476329","seeders":"1","leechers":"0","description":"   General\r\n      Complete name : iMPACT!.Bound.for.Glory.2017.11.05.HDTV.XviD-FICEK9.avi\r\n      Format : AVI\r\n      Format/Info : Audio Video Interleave\r\n      Format profile : OpenDML\r\n      File size : 1.75 GiB\r\n      Duration : 2 h 56 min\r\n      Overall bit rate mode : Variable\r\n      Overall bit rate : 1 421 kb/s\r\n      Writing application : Lavf57.41.100\r\n   Video #0\r\n      ID : 0\r\n      Format : xvid\r\n      Codec ID : xvid\r\n      Duration : 2 h 56 min\r\n      Bit rate : 1 287 kb/s\r\n      Width : 624 pixels\r\n      Height : 352 pixels\r\n      Display aspect ratio : 16:9\r\n      Frame rate : 29.970 FPS\r\n      Scan type : Progressive\r\n      Bits/(Pixel*Frame) : 0.195\r\n      Stream size : 1.58 GiB (91%)\r\n   Audio #1\r\n      ID : 1\r\n      Format : MPEG Audio\r\n      Format version : Version 1\r\n      Format profile : Layer 3\r\n      Mode : Joint stereo\r\n      Mode extension : MS Stereo\r\n      Codec ID : 55\r\n      Codec ID/Hint : MP3\r\n      Duration : 2 h 56 min\r\n      Bit rate mode : Variable\r\n      Bit rate : 120 kb/s\r\n      Channel(s) : 2 channels\r\n      Sampling rate : 48.0 kHz\r\n      Compression mode : Lossy\r\n      Stream size : 151 MiB (8%)\r\n      Alignment : Aligned on interleaves\r\n      Interleave, duration : 24  ms (0.72 video frame)","last_updated":"2017-12-22T12:03:39.642Z","parsed":{"xt":"urn:btih:2ac5bca7422999c6dc90e7b45b942e4ca0206b54","dn":"iMPACT!.Bound.for.Glory.2017.11.05.HDTV.XviD-FICEK9","tr":["udp://exodus.desync.com:6969","udp://open.demonii.com:1337","udp://tracker.coppersurfer.tk:6969","udp://tracker.leechers-paradise.org:6969","udp://zer0day.ch:1337"],"infoHash":"2ac5bca7422999c6dc90e7b45b942e4ca0206b54","infoHashBuffer":{"type":"Buffer","data":[42,197,188,167,66,41,153,198,220,144,231,180,91,148,46,76,160,32,107,84]},"name":"iMPACT!.Bound.for.Glory.2017.11.05.HDTV.XviD-FICEK9","announce":["udp://exodus.desync.com:6969","udp://open.demonii.com:1337","udp://tracker.coppersurfer.tk:6969","udp://tracker.leechers-paradise.org:6969","udp://zer0day.ch:1337"],"urlList":[]}}